<?xml version="1.0" encoding="utf-8"?>
<!-- Generator: Adobe Illustrator 18.1.0, SVG Export Plug-In . SVG Version: 6.00 Build 0)  -->
<svg version="1.1" id="Capa_1" xmlns="http://www.w3.org/2000/svg" xmlns:xlink="http://www.w3.org/1999/xlink" x="0px" y="0px"
	 width="1000px" height="1000px" viewBox="0 0 1000 1000" enable-background="new 0 0 1000 1000" xml:space="preserve">
<path d="M728.6,661.7c20.7,33,57.4,55,99.3,55c64.7,0,117.1-52.4,117.1-117.1c0-64.7-52.4-117.1-117.1-117.1
	c-64.7,0-117.1,52.4-117.1,117.1c0,1.6,0,3.2,0.1,4.8L547,655c-11.4-24-27.2-45.6-46.3-63.6l202.4-288.2c15.8,6.5,33.1,10,51.2,10
	c74.6,0,135.1-60.5,135.1-135.1c0-74.6-60.5-135.1-135.1-135.1c-59.4,0-109.8,38.3-127.9,91.5l-126.6-13.3
	c-9.6-30-37.7-51.8-70.9-51.8c-41.1,0-74.5,33.3-74.5,74.5s33.3,74.5,74.5,74.5c27.7,0,51.8-15.1,64.6-37.5l126.6,13.3
	c3.4,28.5,15.6,54.3,33.9,74.5L451.6,556.9c-28.8-14.6-61.3-22.9-95.8-22.9c-36.4,0-70.6,9.2-100.5,25.4l-73.4-99
	c8.1-12.8,12.8-28,12.8-44.3c0-45.8-37.1-82.9-82.9-82.9S28.9,370.2,28.9,416c0,45.8,37.1,82.9,82.9,82.9c7.6,0,14.9-1,21.9-2.9
	l73.4,99.1c-38.8,38.3-62.8,91.6-62.8,150.4C144.3,862.3,239,957,355.8,957c116.8,0,211.5-94.7,211.5-211.5
	c0-11.3-0.9-22.4-2.6-33.2L728.6,661.7z"/>
</svg>
