<?xml version="1.0" encoding="iso-8859-1"?>
<!-- Generator: Adobe Illustrator 16.0.0, SVG Export Plug-In . SVG Version: 6.00 Build 0)  -->
<!DOCTYPE svg PUBLIC "-//W3C//DTD SVG 1.1//EN" "http://www.w3.org/Graphics/SVG/1.1/DTD/svg11.dtd">
<svg version="1.1" id="Layer_1" xmlns="http://www.w3.org/2000/svg" xmlns:xlink="http://www.w3.org/1999/xlink" x="0px" y="0px"
	 width="30.259px" height="42.784px" viewBox="0 0 30.259 42.784" style="enable-background:new 0 0 30.259 42.784;"
	 xml:space="preserve">
<path d="M28.104,30.011c-0.275-0.211-0.657-0.392-1.111-0.549c0.539-4.901,1.762-18.439-0.553-23.208
	c-2.763-5.689-8.089-7.352-11.185-5.577c-0.099-0.003-0.193-0.018-0.292-0.018c-0.163,0-0.322,0.021-0.483,0.029
	C9.493-0.898,3.224,1.41,2.285,6.597c-0.969,5.354,0.228,16.577,0.171,23.186c-0.002,0.201,0.007,0.392,0.022,0.574
	c-0.276,0.197-0.504,0.412-0.659,0.651c-1.777,2.726-1.817,10.927-1.818,11.275L0,42.784h30.241l0.01-0.49
	C30.272,41.222,30.396,31.766,28.104,30.011z M18.585,24.055v5.086l1.939-0.06l-5.188,11.517l-5.151-11.462l1.899,0.112v-4.873
	c-3.668-1.361-6.408-5.254-6.793-9.96l0.752-0.262v1.713h7.958v-1.48h1.922v1.48h7.958v-2.06l0.778,0.062
	C24.465,18.488,22.007,22.404,18.585,24.055z M6.847,15.063v-3.571h6.351v3.571H6.847z M16.729,15.063v-3.571h6.351v3.571H16.729z
	 M23.882,12.803v-2.115h-7.958v1.48h-1.922v-1.48H6.044v2.406l-0.8,0.278c0-0.032-0.003-0.063-0.003-0.095
	c0-0.678,0.059-1.339,0.152-1.985c0.271-0.648,0.597-1.244,0.937-1.961c0.736-1.556,1.603-2.108,1.603-2.108s4.422,1.98,9.328,1.558
	c-1.01-0.748-1.01-2.248-1.02-3.21c2.45,1.332,6.331,2.186,7.359,2.397c0.639,1.478,1.016,3.138,1.067,4.898L23.882,12.803z"/>
<g>
</g>
<g>
</g>
<g>
</g>
<g>
</g>
<g>
</g>
<g>
</g>
<g>
</g>
<g>
</g>
<g>
</g>
<g>
</g>
<g>
</g>
<g>
</g>
<g>
</g>
<g>
</g>
<g>
</g>
</svg>
